<mxfile host="Electron" modified="2023-12-31T09:06:06.441Z" agent="Mozilla/5.0 (Windows NT 10.0; Win64; x64) AppleWebKit/537.36 (KHTML, like Gecko) draw.io/22.0.3 Chrome/114.0.5735.289 Electron/25.8.4 Safari/537.36" etag="lj_FSCHZryqlTd7H4KM5" version="22.0.3" type="device">
  <diagram id="R2lEEEUBdFMjLlhIrx00" name="Page-1">
    <mxGraphModel dx="1206" dy="857" grid="1" gridSize="10" guides="1" tooltips="1" connect="1" arrows="1" fold="1" page="1" pageScale="1" pageWidth="850" pageHeight="1100" math="0" shadow="0" extFonts="Permanent Marker^https://fonts.googleapis.com/css?family=Permanent+Marker">
      <root>
        <mxCell id="0" />
        <mxCell id="1" parent="0" />
        <mxCell id="UhuW8QRkzZi-GOZt8dOZ-34" style="edgeStyle=orthogonalEdgeStyle;rounded=0;orthogonalLoop=1;jettySize=auto;html=1;entryX=1;entryY=0.5;entryDx=0;entryDy=0;" edge="1" parent="1" source="UhuW8QRkzZi-GOZt8dOZ-1" target="UhuW8QRkzZi-GOZt8dOZ-20">
          <mxGeometry relative="1" as="geometry" />
        </mxCell>
        <mxCell id="UhuW8QRkzZi-GOZt8dOZ-35" style="edgeStyle=orthogonalEdgeStyle;rounded=0;orthogonalLoop=1;jettySize=auto;html=1;entryX=1;entryY=0.75;entryDx=0;entryDy=0;" edge="1" parent="1" source="UhuW8QRkzZi-GOZt8dOZ-1" target="UhuW8QRkzZi-GOZt8dOZ-25">
          <mxGeometry relative="1" as="geometry" />
        </mxCell>
        <mxCell id="UhuW8QRkzZi-GOZt8dOZ-36" style="edgeStyle=orthogonalEdgeStyle;rounded=0;orthogonalLoop=1;jettySize=auto;html=1;entryX=1;entryY=0.5;entryDx=0;entryDy=0;" edge="1" parent="1" source="UhuW8QRkzZi-GOZt8dOZ-1" target="UhuW8QRkzZi-GOZt8dOZ-21">
          <mxGeometry relative="1" as="geometry" />
        </mxCell>
        <mxCell id="UhuW8QRkzZi-GOZt8dOZ-38" style="edgeStyle=orthogonalEdgeStyle;rounded=0;orthogonalLoop=1;jettySize=auto;html=1;entryX=1;entryY=0.5;entryDx=0;entryDy=0;" edge="1" parent="1" source="UhuW8QRkzZi-GOZt8dOZ-1" target="UhuW8QRkzZi-GOZt8dOZ-31">
          <mxGeometry relative="1" as="geometry" />
        </mxCell>
        <mxCell id="UhuW8QRkzZi-GOZt8dOZ-39" style="edgeStyle=orthogonalEdgeStyle;rounded=0;orthogonalLoop=1;jettySize=auto;html=1;entryX=1;entryY=0.5;entryDx=0;entryDy=0;" edge="1" parent="1" source="UhuW8QRkzZi-GOZt8dOZ-1" target="UhuW8QRkzZi-GOZt8dOZ-28">
          <mxGeometry relative="1" as="geometry" />
        </mxCell>
        <mxCell id="UhuW8QRkzZi-GOZt8dOZ-1" value="&lt;font color=&quot;#ff0000&quot;&gt;question_review&lt;/font&gt;" style="rounded=1;whiteSpace=wrap;html=1;" vertex="1" parent="1">
          <mxGeometry x="380" y="400" width="120" height="60" as="geometry" />
        </mxCell>
        <mxCell id="UhuW8QRkzZi-GOZt8dOZ-2" value="&lt;font color=&quot;#ff0000&quot;&gt;comment&lt;/font&gt;" style="rounded=1;whiteSpace=wrap;html=1;" vertex="1" parent="1">
          <mxGeometry x="380" y="590" width="120" height="60" as="geometry" />
        </mxCell>
        <mxCell id="UhuW8QRkzZi-GOZt8dOZ-76" style="edgeStyle=orthogonalEdgeStyle;rounded=0;orthogonalLoop=1;jettySize=auto;html=1;entryX=0.5;entryY=1;entryDx=0;entryDy=0;" edge="1" parent="1" source="UhuW8QRkzZi-GOZt8dOZ-3" target="UhuW8QRkzZi-GOZt8dOZ-27">
          <mxGeometry relative="1" as="geometry" />
        </mxCell>
        <mxCell id="UhuW8QRkzZi-GOZt8dOZ-77" style="edgeStyle=orthogonalEdgeStyle;rounded=0;orthogonalLoop=1;jettySize=auto;html=1;entryX=0.5;entryY=1;entryDx=0;entryDy=0;" edge="1" parent="1" source="UhuW8QRkzZi-GOZt8dOZ-3" target="UhuW8QRkzZi-GOZt8dOZ-26">
          <mxGeometry relative="1" as="geometry" />
        </mxCell>
        <mxCell id="UhuW8QRkzZi-GOZt8dOZ-78" style="edgeStyle=orthogonalEdgeStyle;rounded=0;orthogonalLoop=1;jettySize=auto;html=1;entryX=0.5;entryY=1;entryDx=0;entryDy=0;exitX=0.5;exitY=0;exitDx=0;exitDy=0;" edge="1" parent="1" source="UhuW8QRkzZi-GOZt8dOZ-3" target="UhuW8QRkzZi-GOZt8dOZ-29">
          <mxGeometry relative="1" as="geometry" />
        </mxCell>
        <mxCell id="UhuW8QRkzZi-GOZt8dOZ-3" value="&lt;font color=&quot;#ff0000&quot;&gt;assessor_review_questions&lt;/font&gt;" style="rounded=1;whiteSpace=wrap;html=1;" vertex="1" parent="1">
          <mxGeometry x="650" y="400" width="180" height="60" as="geometry" />
        </mxCell>
        <mxCell id="UhuW8QRkzZi-GOZt8dOZ-4" value="&lt;font color=&quot;#ff0000&quot;&gt;question_review_timer&lt;/font&gt;" style="rounded=1;whiteSpace=wrap;html=1;" vertex="1" parent="1">
          <mxGeometry x="80" y="400" width="140" height="60" as="geometry" />
        </mxCell>
        <mxCell id="UhuW8QRkzZi-GOZt8dOZ-5" value="到期时间" style="rounded=0;whiteSpace=wrap;html=1;" vertex="1" parent="1">
          <mxGeometry x="40" y="520" width="80" height="30" as="geometry" />
        </mxCell>
        <mxCell id="UhuW8QRkzZi-GOZt8dOZ-6" value="类别" style="rounded=0;whiteSpace=wrap;html=1;" vertex="1" parent="1">
          <mxGeometry x="20" y="320" width="80" height="30" as="geometry" />
        </mxCell>
        <mxCell id="UhuW8QRkzZi-GOZt8dOZ-7" value="审核id" style="rounded=0;whiteSpace=wrap;html=1;" vertex="1" parent="1">
          <mxGeometry x="160" y="520" width="80" height="30" as="geometry" />
        </mxCell>
        <mxCell id="UhuW8QRkzZi-GOZt8dOZ-10" value="" style="endArrow=classic;html=1;rounded=0;entryX=0.5;entryY=0;entryDx=0;entryDy=0;" edge="1" parent="1" source="UhuW8QRkzZi-GOZt8dOZ-4" target="UhuW8QRkzZi-GOZt8dOZ-7">
          <mxGeometry width="50" height="50" relative="1" as="geometry">
            <mxPoint x="400" y="470" as="sourcePoint" />
            <mxPoint x="210" y="510" as="targetPoint" />
            <Array as="points">
              <mxPoint x="150" y="490" />
              <mxPoint x="200" y="490" />
            </Array>
          </mxGeometry>
        </mxCell>
        <mxCell id="UhuW8QRkzZi-GOZt8dOZ-13" value="" style="endArrow=classic;html=1;rounded=0;exitX=0.5;exitY=1;exitDx=0;exitDy=0;entryX=0.5;entryY=0;entryDx=0;entryDy=0;" edge="1" parent="1" source="UhuW8QRkzZi-GOZt8dOZ-4" target="UhuW8QRkzZi-GOZt8dOZ-5">
          <mxGeometry width="50" height="50" relative="1" as="geometry">
            <mxPoint x="400" y="470" as="sourcePoint" />
            <mxPoint x="450" y="420" as="targetPoint" />
            <Array as="points">
              <mxPoint x="150" y="490" />
              <mxPoint x="80" y="490" />
            </Array>
          </mxGeometry>
        </mxCell>
        <mxCell id="UhuW8QRkzZi-GOZt8dOZ-14" value="" style="endArrow=classic;html=1;rounded=0;exitX=0.5;exitY=0;exitDx=0;exitDy=0;entryX=1;entryY=0.5;entryDx=0;entryDy=0;" edge="1" parent="1" source="UhuW8QRkzZi-GOZt8dOZ-4" target="UhuW8QRkzZi-GOZt8dOZ-6">
          <mxGeometry width="50" height="50" relative="1" as="geometry">
            <mxPoint x="400" y="470" as="sourcePoint" />
            <mxPoint x="450" y="420" as="targetPoint" />
            <Array as="points">
              <mxPoint x="150" y="335" />
            </Array>
          </mxGeometry>
        </mxCell>
        <mxCell id="UhuW8QRkzZi-GOZt8dOZ-20" value="comments" style="rounded=0;whiteSpace=wrap;html=1;" vertex="1" parent="1">
          <mxGeometry x="260" y="520" width="80" height="30" as="geometry" />
        </mxCell>
        <mxCell id="UhuW8QRkzZi-GOZt8dOZ-21" value="id" style="rounded=0;whiteSpace=wrap;html=1;" vertex="1" parent="1">
          <mxGeometry x="260" y="330" width="80" height="30" as="geometry" />
        </mxCell>
        <mxCell id="UhuW8QRkzZi-GOZt8dOZ-25" value="onwer_id" style="rounded=0;whiteSpace=wrap;html=1;" vertex="1" parent="1">
          <mxGeometry x="260" y="470" width="80" height="30" as="geometry" />
        </mxCell>
        <mxCell id="UhuW8QRkzZi-GOZt8dOZ-26" value="my_decision" style="rounded=0;whiteSpace=wrap;html=1;" vertex="1" parent="1">
          <mxGeometry x="750" y="330" width="80" height="30" as="geometry" />
        </mxCell>
        <mxCell id="UhuW8QRkzZi-GOZt8dOZ-27" value="审核Id" style="rounded=0;whiteSpace=wrap;html=1;" vertex="1" parent="1">
          <mxGeometry x="660" y="330" width="80" height="30" as="geometry" />
        </mxCell>
        <mxCell id="UhuW8QRkzZi-GOZt8dOZ-28" value="question_id" style="rounded=0;whiteSpace=wrap;html=1;" vertex="1" parent="1">
          <mxGeometry x="260" y="210" width="80" height="30" as="geometry" />
        </mxCell>
        <mxCell id="UhuW8QRkzZi-GOZt8dOZ-29" value="审核人Id" style="rounded=0;whiteSpace=wrap;html=1;" vertex="1" parent="1">
          <mxGeometry x="560" y="330" width="80" height="30" as="geometry" />
        </mxCell>
        <mxCell id="UhuW8QRkzZi-GOZt8dOZ-31" value="status" style="rounded=0;whiteSpace=wrap;html=1;" vertex="1" parent="1">
          <mxGeometry x="260" y="270" width="80" height="30" as="geometry" />
        </mxCell>
        <mxCell id="UhuW8QRkzZi-GOZt8dOZ-50" style="edgeStyle=orthogonalEdgeStyle;rounded=0;orthogonalLoop=1;jettySize=auto;html=1;" edge="1" parent="1" source="UhuW8QRkzZi-GOZt8dOZ-40" target="UhuW8QRkzZi-GOZt8dOZ-4">
          <mxGeometry relative="1" as="geometry" />
        </mxCell>
        <mxCell id="UhuW8QRkzZi-GOZt8dOZ-72" value="1" style="edgeLabel;html=1;align=center;verticalAlign=middle;resizable=0;points=[];" vertex="1" connectable="0" parent="UhuW8QRkzZi-GOZt8dOZ-50">
          <mxGeometry x="-0.2333" y="-3" relative="1" as="geometry">
            <mxPoint as="offset" />
          </mxGeometry>
        </mxCell>
        <mxCell id="UhuW8QRkzZi-GOZt8dOZ-51" style="edgeStyle=orthogonalEdgeStyle;rounded=0;orthogonalLoop=1;jettySize=auto;html=1;entryX=0;entryY=0.5;entryDx=0;entryDy=0;" edge="1" parent="1" source="UhuW8QRkzZi-GOZt8dOZ-40" target="UhuW8QRkzZi-GOZt8dOZ-1">
          <mxGeometry relative="1" as="geometry" />
        </mxCell>
        <mxCell id="UhuW8QRkzZi-GOZt8dOZ-73" value="1" style="edgeLabel;html=1;align=center;verticalAlign=middle;resizable=0;points=[];" vertex="1" connectable="0" parent="UhuW8QRkzZi-GOZt8dOZ-51">
          <mxGeometry x="-0.1778" y="2" relative="1" as="geometry">
            <mxPoint as="offset" />
          </mxGeometry>
        </mxCell>
        <mxCell id="UhuW8QRkzZi-GOZt8dOZ-40" value="拥有" style="rhombus;whiteSpace=wrap;html=1;" vertex="1" parent="1">
          <mxGeometry x="260" y="410" width="60" height="40" as="geometry" />
        </mxCell>
        <mxCell id="UhuW8QRkzZi-GOZt8dOZ-41" value="&lt;font color=&quot;#ff0000&quot;&gt;question&lt;/font&gt;" style="rounded=1;whiteSpace=wrap;html=1;" vertex="1" parent="1">
          <mxGeometry x="565" y="590" width="120" height="60" as="geometry" />
        </mxCell>
        <mxCell id="UhuW8QRkzZi-GOZt8dOZ-42" value="&lt;font color=&quot;#ff0000&quot;&gt;user&lt;/font&gt;" style="rounded=1;whiteSpace=wrap;html=1;" vertex="1" parent="1">
          <mxGeometry x="380" y="195" width="120" height="60" as="geometry" />
        </mxCell>
        <mxCell id="UhuW8QRkzZi-GOZt8dOZ-52" style="edgeStyle=orthogonalEdgeStyle;rounded=0;orthogonalLoop=1;jettySize=auto;html=1;entryX=0.5;entryY=1;entryDx=0;entryDy=0;" edge="1" parent="1" source="UhuW8QRkzZi-GOZt8dOZ-43" target="UhuW8QRkzZi-GOZt8dOZ-1">
          <mxGeometry relative="1" as="geometry" />
        </mxCell>
        <mxCell id="UhuW8QRkzZi-GOZt8dOZ-75" value="1" style="edgeLabel;html=1;align=center;verticalAlign=middle;resizable=0;points=[];" vertex="1" connectable="0" parent="UhuW8QRkzZi-GOZt8dOZ-52">
          <mxGeometry x="0.04" y="1" relative="1" as="geometry">
            <mxPoint as="offset" />
          </mxGeometry>
        </mxCell>
        <mxCell id="UhuW8QRkzZi-GOZt8dOZ-53" style="edgeStyle=orthogonalEdgeStyle;rounded=0;orthogonalLoop=1;jettySize=auto;html=1;entryX=0.5;entryY=0;entryDx=0;entryDy=0;" edge="1" parent="1" source="UhuW8QRkzZi-GOZt8dOZ-43" target="UhuW8QRkzZi-GOZt8dOZ-2">
          <mxGeometry relative="1" as="geometry" />
        </mxCell>
        <mxCell id="UhuW8QRkzZi-GOZt8dOZ-74" value="N" style="edgeLabel;html=1;align=center;verticalAlign=middle;resizable=0;points=[];" vertex="1" connectable="0" parent="UhuW8QRkzZi-GOZt8dOZ-53">
          <mxGeometry x="-0.25" y="5" relative="1" as="geometry">
            <mxPoint as="offset" />
          </mxGeometry>
        </mxCell>
        <mxCell id="UhuW8QRkzZi-GOZt8dOZ-43" value="拥有" style="rhombus;whiteSpace=wrap;html=1;" vertex="1" parent="1">
          <mxGeometry x="400" y="510" width="80" height="40" as="geometry" />
        </mxCell>
        <mxCell id="UhuW8QRkzZi-GOZt8dOZ-67" style="edgeStyle=orthogonalEdgeStyle;rounded=0;orthogonalLoop=1;jettySize=auto;html=1;" edge="1" parent="1" source="UhuW8QRkzZi-GOZt8dOZ-54" target="UhuW8QRkzZi-GOZt8dOZ-1">
          <mxGeometry relative="1" as="geometry" />
        </mxCell>
        <mxCell id="UhuW8QRkzZi-GOZt8dOZ-71" value="1" style="edgeLabel;html=1;align=center;verticalAlign=middle;resizable=0;points=[];" vertex="1" connectable="0" parent="UhuW8QRkzZi-GOZt8dOZ-67">
          <mxGeometry x="-0.2833" relative="1" as="geometry">
            <mxPoint as="offset" />
          </mxGeometry>
        </mxCell>
        <mxCell id="UhuW8QRkzZi-GOZt8dOZ-68" value="" style="edgeStyle=orthogonalEdgeStyle;rounded=0;orthogonalLoop=1;jettySize=auto;html=1;" edge="1" parent="1" source="UhuW8QRkzZi-GOZt8dOZ-54" target="UhuW8QRkzZi-GOZt8dOZ-3">
          <mxGeometry relative="1" as="geometry" />
        </mxCell>
        <mxCell id="UhuW8QRkzZi-GOZt8dOZ-69" value="N&lt;br&gt;" style="edgeLabel;html=1;align=center;verticalAlign=middle;resizable=0;points=[];" vertex="1" connectable="0" parent="UhuW8QRkzZi-GOZt8dOZ-68">
          <mxGeometry x="-0.0133" y="-2" relative="1" as="geometry">
            <mxPoint as="offset" />
          </mxGeometry>
        </mxCell>
        <mxCell id="UhuW8QRkzZi-GOZt8dOZ-54" value="拥有" style="rhombus;whiteSpace=wrap;html=1;" vertex="1" parent="1">
          <mxGeometry x="540" y="410" width="60" height="40" as="geometry" />
        </mxCell>
        <mxCell id="UhuW8QRkzZi-GOZt8dOZ-63" style="edgeStyle=orthogonalEdgeStyle;rounded=0;orthogonalLoop=1;jettySize=auto;html=1;" edge="1" parent="1" source="UhuW8QRkzZi-GOZt8dOZ-55" target="UhuW8QRkzZi-GOZt8dOZ-41">
          <mxGeometry relative="1" as="geometry" />
        </mxCell>
        <mxCell id="UhuW8QRkzZi-GOZt8dOZ-66" value="1" style="edgeLabel;html=1;align=center;verticalAlign=middle;resizable=0;points=[];" vertex="1" connectable="0" parent="UhuW8QRkzZi-GOZt8dOZ-63">
          <mxGeometry x="-0.2" y="1" relative="1" as="geometry">
            <mxPoint as="offset" />
          </mxGeometry>
        </mxCell>
        <mxCell id="UhuW8QRkzZi-GOZt8dOZ-55" value="拥有" style="rhombus;whiteSpace=wrap;html=1;" vertex="1" parent="1">
          <mxGeometry x="590" y="505" width="70" height="35" as="geometry" />
        </mxCell>
        <mxCell id="UhuW8QRkzZi-GOZt8dOZ-59" style="edgeStyle=orthogonalEdgeStyle;rounded=0;orthogonalLoop=1;jettySize=auto;html=1;entryX=0.5;entryY=1;entryDx=0;entryDy=0;" edge="1" parent="1" source="UhuW8QRkzZi-GOZt8dOZ-58" target="UhuW8QRkzZi-GOZt8dOZ-42">
          <mxGeometry relative="1" as="geometry" />
        </mxCell>
        <mxCell id="UhuW8QRkzZi-GOZt8dOZ-62" value="1" style="edgeLabel;html=1;align=center;verticalAlign=middle;resizable=0;points=[];" vertex="1" connectable="0" parent="UhuW8QRkzZi-GOZt8dOZ-59">
          <mxGeometry x="-0.2" y="-2" relative="1" as="geometry">
            <mxPoint as="offset" />
          </mxGeometry>
        </mxCell>
        <mxCell id="UhuW8QRkzZi-GOZt8dOZ-60" style="edgeStyle=orthogonalEdgeStyle;rounded=0;orthogonalLoop=1;jettySize=auto;html=1;entryX=0.5;entryY=0;entryDx=0;entryDy=0;" edge="1" parent="1" source="UhuW8QRkzZi-GOZt8dOZ-58" target="UhuW8QRkzZi-GOZt8dOZ-1">
          <mxGeometry relative="1" as="geometry" />
        </mxCell>
        <mxCell id="UhuW8QRkzZi-GOZt8dOZ-61" value="N" style="edgeLabel;html=1;align=center;verticalAlign=middle;resizable=0;points=[];" vertex="1" connectable="0" parent="UhuW8QRkzZi-GOZt8dOZ-60">
          <mxGeometry x="-0.4545" y="1" relative="1" as="geometry">
            <mxPoint as="offset" />
          </mxGeometry>
        </mxCell>
        <mxCell id="UhuW8QRkzZi-GOZt8dOZ-58" value="拥有" style="rhombus;whiteSpace=wrap;html=1;" vertex="1" parent="1">
          <mxGeometry x="400" y="310" width="80" height="35" as="geometry" />
        </mxCell>
        <mxCell id="UhuW8QRkzZi-GOZt8dOZ-64" style="edgeStyle=orthogonalEdgeStyle;rounded=0;orthogonalLoop=1;jettySize=auto;html=1;entryX=0.817;entryY=1.067;entryDx=0;entryDy=0;entryPerimeter=0;" edge="1" parent="1" source="UhuW8QRkzZi-GOZt8dOZ-55" target="UhuW8QRkzZi-GOZt8dOZ-1">
          <mxGeometry relative="1" as="geometry">
            <Array as="points">
              <mxPoint x="625" y="490" />
              <mxPoint x="478" y="490" />
            </Array>
          </mxGeometry>
        </mxCell>
        <mxCell id="UhuW8QRkzZi-GOZt8dOZ-65" value="1" style="edgeLabel;html=1;align=center;verticalAlign=middle;resizable=0;points=[];" vertex="1" connectable="0" parent="UhuW8QRkzZi-GOZt8dOZ-64">
          <mxGeometry x="0.0143" y="3" relative="1" as="geometry">
            <mxPoint as="offset" />
          </mxGeometry>
        </mxCell>
      </root>
    </mxGraphModel>
  </diagram>
</mxfile>
